# xmcd CD database file
#
# Track frame offsets:
#	150
#	17851
#	34698
#	55887
#	71806
#	86045
#	101519
#	115696
#	133295
#	155415
#	173421
#	193512
#	212271
#	228270
#	244128
#
# Disc length: 3549 seconds
#
# Revision: 1
# Processed by: cddbd v1.5.2PL0 Copyright (c) Steve Scherf et al.
# Submitted via: CDex 1.75
#
DISCID=c30ddb0f
DTITLE=The Rocket Men - A Tribute To Elton John
DYEAR=2004
DGENRE=Blues
TTITLE0=Your Song
TTITLE1=Crocodile Rock
TTITLE2=Rocket Man
TTITLE3=True Love
TTITLE4=Blue Eyes
TTITLE5=Candle In The Wind
TTITLE6=Goodbye Yellow Brick Road
TTITLE7=Can You Feel The Love Tonight
TTITLE8=Sacrifice
TTITLE9=Daniel
TTITLE10=Don't Go Breaking My Heart
TTITLE11=Sad Songs (SAY SO MUCH)
TTITLE12=Are You Ready For Love
TTITLE13=The Bitch Is Back
TTITLE14=Nikita
EXTD=YEAR: 2004
EXTT0=
EXTT1=
EXTT2=
EXTT3=
EXTT4=
EXTT5=
EXTT6=
EXTT7=
EXTT8=
EXTT9=
EXTT10=
EXTT11=
EXTT12=
EXTT13=
EXTT14=
PLAYORDER=
